<svg xmlns="http://www.w3.org/2000/svg" width="1200" height="900" viewBox="0 0 1200 900" role="img" aria-label="Abstract digital network illustration">
  <defs>
    <radialGradient id="g1" cx="35%" cy="35%" r="70%">
      <stop offset="0%" stop-color="#fff" stop-opacity="0.22" />
      <stop offset="55%" stop-color="#fff" stop-opacity="0.08" />
      <stop offset="100%" stop-color="#fff" stop-opacity="0" />
    </radialGradient>
    <radialGradient id="g2" cx="70%" cy="60%" r="65%">
      <stop offset="0%" stop-color="#fff" stop-opacity="0.18" />
      <stop offset="60%" stop-color="#fff" stop-opacity="0.06" />
      <stop offset="100%" stop-color="#fff" stop-opacity="0" />
    </radialGradient>
    <filter id="blur" x="-30%" y="-30%" width="160%" height="160%" color-interpolation-filters="sRGB">
      <feGaussianBlur stdDeviation="20" />
    </filter>
    <filter id="softGlow" x="-30%" y="-30%" width="160%" height="160%" color-interpolation-filters="sRGB">
      <feGaussianBlur stdDeviation="6" result="b" />
      <feColorMatrix in="b" type="matrix" values="1 0 0 0 0  0 1 0 0 0  0 0 1 0 0  0 0 0 0.35 0" result="g" />
      <feMerge>
        <feMergeNode in="g" />
        <feMergeNode in="SourceGraphic" />
      </feMerge>
    </filter>
    <linearGradient id="stroke" x1="0" y1="0" x2="1" y2="1">
      <stop offset="0%" stop-color="#fff" stop-opacity="0.35" />
      <stop offset="100%" stop-color="#fff" stop-opacity="0.08" />
    </linearGradient>
  </defs>

  <!-- soft blobs -->
  <g filter="url(#blur)">
    <circle cx="420" cy="330" r="280" fill="url(#g1)" />
    <circle cx="820" cy="560" r="300" fill="url(#g2)" />
  </g>

  <!-- orbital rings -->
  <g fill="none" stroke="url(#stroke)" stroke-width="2" opacity="0.9">
    <ellipse cx="680" cy="440" rx="360" ry="260" />
    <ellipse cx="680" cy="440" rx="300" ry="210" opacity="0.7" />
    <ellipse cx="680" cy="440" rx="240" ry="165" opacity="0.5" />
  </g>

  <!-- connecting lines -->
  <g fill="none" stroke="#fff" stroke-opacity="0.18" stroke-width="2" stroke-linecap="round">
    <path d="M355 560 C 470 430, 560 380, 680 440" />
    <path d="M680 440 C 780 500, 860 560, 980 520" />
    <path d="M470 300 C 560 360, 620 420, 680 440" />
    <path d="M680 440 C 740 360, 820 290, 930 310" />
    <path d="M520 670 C 600 560, 640 500, 680 440" />
    <path d="M680 440 C 760 430, 850 410, 910 380" />
  </g>

  <!-- nodes -->
  <g filter="url(#softGlow)">
    <g fill="#fff">
      <circle cx="355" cy="560" r="8" fill-opacity="0.75" />
      <circle cx="470" cy="300" r="7" fill-opacity="0.65" />
      <circle cx="520" cy="670" r="7" fill-opacity="0.55" />
      <circle cx="680" cy="440" r="10" fill-opacity="0.8" />
      <circle cx="910" cy="380" r="7" fill-opacity="0.6" />
      <circle cx="930" cy="310" r="7" fill-opacity="0.55" />
      <circle cx="980" cy="520" r="8" fill-opacity="0.7" />
    </g>

    <!-- micro dots -->
    <g fill="#fff" fill-opacity="0.20">
      <circle cx="610" cy="310" r="2" />
      <circle cx="760" cy="280" r="2" />
      <circle cx="820" cy="470" r="2" />
      <circle cx="560" cy="520" r="2" />
      <circle cx="860" cy="610" r="2" />
      <circle cx="740" cy="620" r="2" />
      <circle cx="450" cy="460" r="2" />
    </g>
  </g>
</svg>
